<svg width="42" height="29" viewBox="0 0 42 29" fill="none" xmlns="http://www.w3.org/2000/svg">
<path d="M8.65337 14.7016H4.20739C2.89342 14.7016 1.62831 15.3401 1.02861 16.5092C-0.547821 19.5825 -0.209748 21.7534 1.34625 24.5255C2.04941 25.7782 3.46588 26.4051 4.90216 26.3774C9.14363 26.2956 11.0271 27.2441 16.2035 28.6338C16.6618 28.7568 17.1303 28.8455 17.603 28.8873C18.7039 28.9845 20.553 29.089 22.1989 28.8734C22.8041 28.7942 23.4093 28.7017 24.0195 28.6886C25.8963 28.6485 27.4391 28.6985 27.8037 28.7119C27.8592 28.714 27.9148 28.7154 27.9703 28.7143C31.1509 28.6515 31.6279 25.0561 29.005 24.3509C32.2617 24.3509 32.2617 20.5978 29.5297 20.0415C33.8901 20.0415 33.1777 16.1332 30.5629 15.6384L38.9843 15.6385C39.3184 15.6385 39.6585 15.6101 39.961 15.4682C41.5835 14.7072 41.8767 12.5394 39.9469 11.7582C39.6496 11.6378 39.3253 11.6101 39.0046 11.6101H23.3308C22.7813 11.6101 22.4669 10.9846 22.7897 10.5398C24.4204 8.29335 24.7166 7.57394 26.3922 3.22893C27.5122 0.324799 23.8585 -1.26786 22.2595 1.26158C18.3528 7.44197 16.3032 9.44526 11.1847 13.7765C10.4775 14.3749 9.57975 14.7016 8.65337 14.7016Z" fill="white"/>
</svg>
