<svg viewBox="0 0 259 218" fill="none" xmlns="http://www.w3.org/2000/svg"><path d="M12.58 12.847L243.494 2.44l-17.301 214.862L7.3 203l5.28-190.153z" fill="#223343"/><path d="M75.039 76h-13.32l-14.1-21.36V76h-13.32V33.52h13.32l14.1 21.72V33.52h13.32V76zm19.338-31.86v5.22h13.2v10.02h-13.2v6h15V76h-28.32V33.52h28.32v10.62h-15zm81.219-10.62L165.876 76h-16.56l-4.92-24.12-4.92 24.12h-16.56l-9.72-42.48h14.34l3.84 26.76 5.76-26.76h14.52l5.76 26.76 3.84-26.76h14.34z" fill="#FFC700"/><path d="M51.999 87.52c4.44 0 8.32.9 11.64 2.7 3.36 1.8 5.94 4.3 7.74 7.5 1.8 3.2 2.7 6.84 2.7 10.92 0 4.04-.9 7.68-2.7 10.92-1.8 3.24-4.38 5.8-7.74 7.68-3.32 1.84-7.2 2.76-11.64 2.76h-17.7V87.52h17.7zm-1.2 30.6c3 0 5.38-.82 7.14-2.46 1.76-1.64 2.64-3.98 2.64-7.02 0-3.04-.88-5.38-2.64-7.02-1.76-1.64-4.14-2.46-7.14-2.46h-3.18v18.96h3.18zm41.41-19.98v5.22h13.2v10.02h-13.2v6h15V130h-28.32V87.52h28.32v10.62h-15zm36.64 32.28c-5.08 0-9.28-1.18-12.6-3.54-3.28-2.4-5.06-5.9-5.34-10.5h14.16c.2 2.44 1.28 3.66 3.24 3.66.72 0 1.32-.16 1.8-.48.52-.36.78-.9.78-1.62 0-1-.54-1.8-1.62-2.4-1.08-.64-2.76-1.36-5.04-2.16-2.72-.96-4.98-1.9-6.78-2.82-1.76-.92-3.28-2.26-4.56-4.02-1.28-1.76-1.9-4.02-1.86-6.78 0-2.76.7-5.1 2.1-7.02 1.44-1.96 3.38-3.44 5.82-4.44 2.48-1 5.26-1.5 8.34-1.5 5.2 0 9.32 1.2 12.36 3.6 3.08 2.4 4.7 5.78 4.86 10.14h-14.34c-.04-1.2-.34-2.06-.9-2.58s-1.24-.78-2.04-.78c-.56 0-1.02.2-1.38.6-.36.36-.54.88-.54 1.56 0 .96.52 1.76 1.56 2.4 1.08.6 2.78 1.34 5.1 2.22 2.68 1 4.88 1.96 6.6 2.88 1.76.92 3.28 2.2 4.56 3.84 1.28 1.64 1.92 3.7 1.92 6.18 0 2.6-.64 4.94-1.92 7.02-1.28 2.04-3.14 3.64-5.58 4.8-2.44 1.16-5.34 1.74-8.7 1.74zm34.2-42.9V130h-13.32V87.52h13.32zm32.055 14.52c-.52-.84-1.26-1.48-2.22-1.92-.96-.48-2.12-.72-3.48-.72-2.56 0-4.54.84-5.94 2.52-1.4 1.64-2.1 3.9-2.1 6.78 0 3.32.78 5.8 2.34 7.44 1.56 1.64 3.96 2.46 7.2 2.46 3.08 0 5.56-1.24 7.44-3.72h-10.62v-9.42h21.66v13.32c-1.84 3.16-4.38 5.88-7.62 8.16-3.24 2.24-7.34 3.36-12.3 3.36-4.4 0-8.24-.9-11.52-2.7-3.24-1.84-5.74-4.4-7.5-7.68-1.72-3.28-2.58-7.02-2.58-11.22 0-4.2.86-7.94 2.58-11.22 1.76-3.28 4.26-5.82 7.5-7.62 3.24-1.84 7.04-2.76 11.4-2.76 5.56 0 10.08 1.34 13.56 4.02 3.52 2.68 5.6 6.32 6.24 10.92h-14.04zM75.039 184h-13.32l-14.1-21.36V184h-13.32v-42.48h13.32l14.1 21.72v-21.72h13.32V184zm19.338-31.86v5.22h13.2v10.02h-13.2v6h15V184h-28.32v-42.48h28.32v10.62h-15zM135.756 184l-7.98-15.24h-.06V184h-13.32v-42.48h19.8c3.44 0 6.38.62 8.82 1.86 2.44 1.2 4.26 2.86 5.46 4.98 1.24 2.08 1.86 4.44 1.86 7.08 0 2.84-.8 5.36-2.4 7.56-1.56 2.2-3.82 3.78-6.78 4.74l9.24 16.26h-14.64zm-8.04-24.12h5.28c1.28 0 2.24-.28 2.88-.84.64-.6.96-1.52.96-2.76 0-1.12-.34-2-1.02-2.64-.64-.64-1.58-.96-2.82-.96h-5.28v7.2zm43.496 24.54c-5.08 0-9.28-1.18-12.6-3.54-3.28-2.4-5.06-5.9-5.34-10.5h14.16c.2 2.44 1.28 3.66 3.24 3.66.72 0 1.32-.16 1.8-.48.52-.36.78-.9.78-1.62 0-1-.54-1.8-1.62-2.4-1.08-.64-2.76-1.36-5.04-2.16-2.72-.96-4.98-1.9-6.78-2.82-1.76-.92-3.28-2.26-4.56-4.02-1.28-1.76-1.9-4.02-1.86-6.78 0-2.76.7-5.1 2.1-7.02 1.44-1.96 3.38-3.44 5.82-4.44 2.48-1 5.26-1.5 8.34-1.5 5.2 0 9.32 1.2 12.36 3.6 3.08 2.4 4.7 5.78 4.86 10.14h-14.34c-.04-1.2-.34-2.06-.9-2.58s-1.24-.78-2.04-.78c-.56 0-1.02.2-1.38.6-.36.36-.54.88-.54 1.56 0 .96.52 1.76 1.56 2.4 1.08.6 2.78 1.34 5.1 2.22 2.68 1 4.88 1.96 6.6 2.88 1.76.92 3.28 2.2 4.56 3.84 1.28 1.64 1.92 3.7 1.92 6.18 0 2.6-.64 4.94-1.92 7.02-1.28 2.04-3.14 3.64-5.58 4.8-2.44 1.16-5.34 1.74-8.7 1.74z" fill="#fff"/><path d="M257.299 17.086L1.299 2l17 214 202-10 37-188.914z" stroke="#00B2CD" stroke-width="2"/><circle cx="201.299" cy="177" r="7" fill="#FFC700"/></svg>